<?xml version="1.0" standalone="no"?>
<!DOCTYPE svg PUBLIC "-//W3C//DTD SVG 20010904//EN"
 "http://www.w3.org/TR/2001/REC-SVG-20010904/DTD/svg10.dtd">
<svg version="1.0" xmlns="http://www.w3.org/2000/svg"
 width="126.000000pt" height="198.000000pt" viewBox="0 0 126.000000 198.000000"
 preserveAspectRatio="xMidYMid meet">
<metadata>
Created by potrace 1.16, written by Peter Selinger 2001-2019
</metadata>
<g transform="translate(0.000000,198.000000) scale(0.100000,-0.100000)"
fill="#000000" stroke="none">
<path d="M950 1759 c0 -7 -3 -10 -6 -7 -3 3 -17 -5 -31 -18 -15 -14 -33 -22
-43 -19 -10 3 -35 -8 -61 -27 l-44 -32 35 -7 c19 -4 38 -5 41 -3 4 2 6 -4 5
-13 -2 -10 -16 -22 -32 -28 -16 -5 -34 -17 -41 -25 -10 -13 -14 -13 -27 5 -12
16 -18 18 -33 9 -10 -6 -19 -17 -19 -25 -3 -31 -5 -33 -13 -20 -6 10 -12 3
-21 -25 -7 -22 -17 -44 -22 -51 -5 -7 -6 -18 -2 -24 4 -8 3 -9 -4 -5 -7 4 -12
3 -12 -2 0 -5 -36 -47 -80 -93 -44 -46 -78 -88 -76 -94 2 -5 -5 -27 -16 -48
-32 -64 -15 -51 25 18 21 36 42 65 48 65 6 0 8 4 4 9 -7 12 26 31 54 31 11 0
23 -5 27 -11 5 -8 -1 -10 -20 -7 -18 4 -26 1 -26 -8 0 -8 -4 -14 -8 -14 -5 0
-17 -7 -28 -16 -18 -15 -18 -15 0 -10 16 6 17 4 6 -9 -7 -8 -9 -15 -4 -15 5
-1 -7 -14 -26 -30 l-34 -30 247 0 247 0 -9 23 c-4 12 -11 40 -15 62 l-7 40 26
-45 c42 -72 56 -92 62 -87 3 3 -16 44 -42 91 -44 82 -46 86 -31 113 21 37 80
103 93 103 6 0 16 -7 23 -15 17 -21 30 -19 30 6 0 11 -3 18 -7 16 -5 -3 -13 1
-20 8 -10 11 -10 14 0 18 9 3 9 11 0 35 -13 36 -2 39 31 9 29 -25 44 -5 21 29
-12 19 -19 23 -25 14 -6 -9 -10 -8 -18 5 -7 13 -17 17 -38 13 -16 -3 -37 -3
-47 1 -17 6 -17 8 -4 20 9 6 25 13 36 14 15 1 20 6 16 17 -4 8 -9 27 -12 42
-6 31 -17 42 -50 52 -15 5 -23 3 -23 -5z"/>
<path d="M120 733 c9 -66 26 -97 61 -110 26 -10 31 -8 53 18 21 24 26 26 36
14 16 -19 0 -40 -35 -49 -13 -3 -27 -15 -30 -26 -9 -28 -58 -27 -87 3 -23 22
-71 32 -65 13 2 -6 -7 -41 -20 -79 -27 -80 -29 -115 -8 -124 22 -8 107 17 122
35 17 20 16 15 -3 -41 -9 -26 -19 -45 -24 -42 -4 3 -10 -4 -13 -15 -7 -27 18
-26 37 2 l16 22 0 -22 c0 -33 18 -27 29 11 8 29 9 30 10 6 1 -37 11 -42 38
-17 31 29 29 41 -11 80 -46 45 -53 71 -25 97 28 26 34 26 59 1 16 -16 18 -24
10 -46 -7 -16 -7 -31 -1 -38 12 -14 20 -117 9 -110 -4 3 -36 -23 -70 -57 -48
-47 -57 -60 -38 -54 36 11 90 45 90 57 0 6 7 8 15 4 10 -4 15 1 16 17 1 19 2
18 9 -6 5 -16 14 -35 20 -42 6 -8 9 -23 6 -33 -7 -21 12 -72 26 -72 12 0 -2
81 -18 105 -8 11 -14 22 -14 25 0 8 115 4 129 -4 18 -11 13 9 -7 28 -31 27
-10 117 36 159 18 17 21 16 61 -21 38 -34 56 -62 30 -46 -15 9 -56 -15 -62
-37 -7 -26 1 -29 30 -14 46 24 92 -15 55 -46 -31 -24 -27 -32 11 -24 39 9 59
24 50 38 -4 7 2 8 18 3 13 -4 43 -10 67 -13 32 -4 42 -10 42 -24 0 -30 20 -22
27 11 3 17 9 30 14 30 16 0 9 50 -7 57 -9 3 -32 1 -52 -5 -49 -15 -92 6 -143
71 l-39 49 79 55 c44 30 99 75 123 101 l43 47 -237 3 -238 2 0 25 c0 13 -5 27
-12 31 -16 10 -39 -26 -33 -50 3 -12 3 -16 0 -10 -6 10 -48 11 -75 0 -18 -7
-86 28 -83 43 4 15 -15 61 -25 61 -5 0 -5 -21 -2 -47z"/>
</g>
</svg>
